<?xml version="1.0" encoding="UTF-8"?>
<svg xmlns="http://www.w3.org/2000/svg" xmlns:xlink="http://www.w3.org/1999/xlink" width="104.988pt" height="23.4217pt" viewBox="0 0 104.988 23.4217" version="1.1">
<g id="surface1">
<path style=" stroke:none;fill-rule:nonzero;fill:rgb(13.729858%,12.159729%,12.548828%);fill-opacity:1;" d="M 16.792969 12.65625 C 16.601563 12.65625 16.441406 12.589844 16.304688 12.453125 C 16.171875 12.316406 16.101563 12.152344 16.101563 11.960938 C 16.101563 11.769531 16.171875 11.605469 16.304688 11.46875 C 16.441406 11.332031 16.601563 11.261719 16.792969 11.261719 C 16.988281 11.261719 17.152344 11.332031 17.289063 11.46875 C 17.425781 11.605469 17.492188 11.769531 17.492188 11.960938 C 17.492188 12.152344 17.425781 12.316406 17.289063 12.453125 C 17.152344 12.589844 16.988281 12.65625 16.792969 12.65625 "/>
<path style=" stroke:none;fill-rule:nonzero;fill:rgb(13.729858%,12.159729%,12.548828%);fill-opacity:1;" d="M 80.605469 12.445313 C 82.863281 8.988281 84.320313 11.402344 87.316406 11.132813 L 83.898438 5.324219 L 79.699219 12.425781 L 77.855469 12.425781 L 83.171875 3.570313 C 83.265625 3.40625 83.375 3.28125 83.503906 3.1875 C 83.632813 3.09375 83.785156 3.046875 83.960938 3.046875 C 84.140625 3.046875 84.292969 3.09375 84.414063 3.1875 C 84.535156 3.28125 84.644531 3.40625 84.738281 3.570313 L 90.070313 12.425781 C 86.585938 13.3125 83 10.835938 80.605469 12.445313 "/>
<path style=" stroke:none;fill-rule:nonzero;fill:rgb(13.729858%,12.159729%,12.548828%);fill-opacity:1;" d="M 5.769531 12.445313 C 8.027344 8.988281 9.484375 11.402344 12.480469 11.132813 L 9.066406 5.324219 L 4.863281 12.425781 L 3.019531 12.425781 L 8.339844 3.570313 C 8.429688 3.40625 8.542969 3.28125 8.667969 3.1875 C 8.796875 3.09375 8.949219 3.046875 9.125 3.046875 C 9.304688 3.046875 9.457031 3.09375 9.578125 3.1875 C 9.703125 3.28125 9.8125 3.40625 9.902344 3.570313 L 15.238281 12.425781 C 11.753906 13.3125 8.164063 10.835938 5.769531 12.445313 "/>
<path style=" stroke:none;fill-rule:nonzero;fill:rgb(13.729858%,12.159729%,12.548828%);fill-opacity:1;" d="M 19.644531 12.625 L 19.644531 11.007813 L 26.578125 11.007813 C 27.011719 11.007813 27.34375 10.898438 27.578125 10.675781 C 27.8125 10.457031 27.925781 10.164063 27.925781 9.796875 C 27.925781 9.398438 27.8125 9.101563 27.578125 8.902344 C 27.34375 8.703125 27.011719 8.601563 26.578125 8.601563 L 22.328125 8.601563 C 21.894531 8.601563 21.503906 8.535156 21.152344 8.40625 C 20.796875 8.273438 20.5 8.089844 20.257813 7.859375 C 20.019531 7.625 19.832031 7.347656 19.699219 7.023438 C 19.570313 6.703125 19.503906 6.351563 19.503906 5.96875 C 19.503906 5.59375 19.5625 5.25 19.6875 4.929688 C 19.8125 4.613281 19.992188 4.339844 20.234375 4.109375 C 20.476563 3.882813 20.777344 3.699219 21.132813 3.570313 C 21.488281 3.4375 21.894531 3.371094 22.355469 3.371094 L 28.996094 3.371094 L 28.996094 4.988281 L 22.355469 4.988281 C 21.980469 4.988281 21.691406 5.089844 21.488281 5.289063 C 21.285156 5.488281 21.183594 5.765625 21.183594 6.121094 C 21.183594 6.476563 21.289063 6.753906 21.496094 6.949219 C 21.703125 7.144531 21.984375 7.242188 22.339844 7.242188 L 26.578125 7.242188 C 27.519531 7.242188 28.234375 7.460938 28.722656 7.902344 C 29.210938 8.34375 29.453125 9.011719 29.453125 9.914063 C 29.453125 10.304688 29.394531 10.664063 29.277344 10.996094 C 29.15625 11.324219 28.980469 11.613281 28.742188 11.851563 C 28.503906 12.09375 28.207031 12.285156 27.84375 12.421875 C 27.484375 12.554688 27.0625 12.625 26.578125 12.625 L 19.644531 12.625 "/>
<path style=" stroke:none;fill-rule:nonzero;fill:rgb(13.729858%,12.159729%,12.548828%);fill-opacity:1;" d="M 50.097656 12.625 C 48.992188 11.410156 46.546875 8.421875 44.296875 10.054688 C 45.191406 8.199219 45.605469 8.628906 48.152344 8.628906 C 48.738281 8.628906 49.175781 8.46875 49.472656 8.148438 C 49.769531 7.832031 49.917969 7.371094 49.917969 6.769531 C 49.917969 6.167969 49.765625 5.71875 49.457031 5.425781 C 49.144531 5.136719 48.710938 4.988281 48.152344 4.988281 L 43.113281 4.988281 L 43.113281 12.625 L 41.507813 12.625 L 41.507813 3.371094 L 48.152344 3.371094 C 48.675781 3.371094 49.148438 3.449219 49.5625 3.605469 C 49.980469 3.765625 50.332031 3.988281 50.621094 4.28125 C 50.90625 4.574219 51.128906 4.929688 51.28125 5.34375 C 51.433594 5.761719 51.511719 6.226563 51.511719 6.746094 C 51.511719 7.515625 51.34375 8.164063 51.007813 8.683594 C 50.671875 9.207031 50.203125 9.582031 49.601563 9.8125 L 52.386719 12.625 L 50.097656 12.625 "/>
<path style=" stroke:none;fill-rule:nonzero;fill:rgb(13.729858%,12.159729%,12.548828%);fill-opacity:1;" d="M 53.316406 12.625 L 54.933594 12.625 L 54.933594 3.371094 L 53.316406 3.371094 Z M 53.316406 12.625 "/>
<path style=" stroke:none;fill-rule:nonzero;fill:rgb(13.729858%,12.159729%,12.548828%);fill-opacity:1;" d="M 56.625 12.625 L 56.625 3.371094 L 61.984375 3.371094 C 62.636719 3.371094 63.238281 3.480469 63.789063 3.703125 C 64.34375 3.925781 64.816406 4.234375 65.214844 4.632813 C 65.613281 5.03125 65.925781 5.507813 66.152344 6.0625 C 66.375 6.621094 66.488281 7.230469 66.488281 7.902344 C 66.488281 8.574219 66.375 9.195313 66.152344 9.773438 C 65.925781 10.347656 65.613281 10.847656 65.214844 11.269531 C 64.816406 11.6875 64.34375 12.019531 63.789063 12.261719 C 63.238281 12.503906 62.636719 12.625 61.984375 12.625 Z M 61.984375 11.007813 C 62.398438 11.007813 62.785156 10.929688 63.136719 10.777344 C 63.488281 10.625 63.792969 10.414063 64.050781 10.148438 C 64.308594 9.882813 64.511719 9.5625 64.65625 9.1875 C 64.800781 8.816406 64.871094 8.410156 64.871094 7.976563 C 64.871094 7.546875 64.800781 7.144531 64.65625 6.777344 C 64.511719 6.40625 64.308594 6.089844 64.050781 5.828125 C 63.792969 5.566406 63.488281 5.359375 63.136719 5.210938 C 62.785156 5.0625 62.398438 4.988281 61.984375 4.988281 L 58.230469 4.988281 L 58.230469 11.007813 L 61.984375 11.007813 "/>
<path style=" stroke:none;fill-rule:nonzero;fill:rgb(13.729858%,12.159729%,12.548828%);fill-opacity:1;" d="M 38.289063 12.625 L 38.289063 8.601563 L 33.628906 8.601563 L 33.628906 7.164063 L 38.289063 7.164063 L 38.289063 3.335938 L 39.902344 3.335938 L 39.902344 12.625 Z M 32.457031 12.625 L 30.84375 12.625 L 30.84375 3.335938 L 32.457031 3.335938 Z M 32.457031 12.625 "/>
<path style=" stroke:none;fill-rule:nonzero;fill:rgb(13.729858%,12.159729%,12.548828%);fill-opacity:1;" d="M 75.257813 12.625 L 75.257813 8.601563 L 70.597656 8.601563 L 70.597656 7.164063 L 75.257813 7.164063 L 75.257813 3.335938 L 76.875 3.335938 L 76.875 12.625 Z M 69.429688 12.625 L 67.8125 12.625 L 67.8125 3.335938 L 69.429688 3.335938 Z M 69.429688 12.625 "/>
<path style=" stroke:none;fill-rule:nonzero;fill:rgb(13.729858%,12.159729%,12.548828%);fill-opacity:1;" d="M 99.679688 12.625 C 98.570313 11.410156 96.128906 8.421875 93.875 10.054688 C 94.769531 8.199219 95.1875 8.628906 97.730469 8.628906 C 98.316406 8.628906 98.757813 8.46875 99.054688 8.148438 C 99.351563 7.832031 99.5 7.371094 99.5 6.769531 C 99.5 6.167969 99.34375 5.71875 99.035156 5.425781 C 98.726563 5.136719 98.289063 4.988281 97.730469 4.988281 L 92.691406 4.988281 L 92.691406 12.625 L 91.089844 12.625 L 91.089844 3.371094 L 97.730469 3.371094 C 98.257813 3.371094 98.726563 3.449219 99.144531 3.605469 C 99.558594 3.765625 99.910156 3.988281 100.199219 4.28125 C 100.488281 4.574219 100.707031 4.929688 100.863281 5.34375 C 101.011719 5.761719 101.089844 6.226563 101.089844 6.746094 C 101.089844 7.515625 100.921875 8.164063 100.585938 8.683594 C 100.253906 9.207031 99.785156 9.582031 99.179688 9.8125 L 101.96875 12.625 L 99.679688 12.625 "/>
<path style=" stroke:none;fill-rule:nonzero;fill:rgb(13.729858%,12.159729%,12.548828%);fill-opacity:1;" d="M 9.875 19.816406 L 10.222656 19.816406 C 10.648438 19.816406 11.089844 19.691406 11.089844 19.171875 C 11.089844 18.65625 10.566406 18.550781 10.15625 18.550781 L 9.875 18.550781 Z M 9.875 18.1875 L 9.992188 18.1875 C 10.421875 18.1875 10.777344 18.097656 10.777344 17.574219 C 10.777344 17.0625 10.429688 16.972656 10 16.972656 L 9.875 16.972656 Z M 9.417969 16.566406 L 9.867188 16.566406 C 10.554688 16.566406 11.203125 16.746094 11.203125 17.570313 C 11.203125 17.839844 11.058594 18.148438 10.8125 18.265625 L 10.8125 18.273438 C 11.242188 18.351563 11.542969 18.773438 11.542969 19.203125 C 11.542969 19.933594 10.917969 20.226563 10.273438 20.226563 L 9.417969 20.226563 L 9.417969 16.566406 "/>
<path style=" stroke:none;fill-rule:nonzero;fill:rgb(13.729858%,12.159729%,12.548828%);fill-opacity:1;" d="M 13.996094 16.566406 L 13.996094 18.726563 C 13.996094 19.324219 14.175781 19.875 14.878906 19.875 C 15.585938 19.875 15.765625 19.324219 15.765625 18.726563 L 15.765625 16.566406 L 16.21875 16.566406 L 16.21875 18.882813 C 16.21875 19.6875 15.71875 20.304688 14.878906 20.304688 C 14.039063 20.304688 13.542969 19.6875 13.542969 18.882813 L 13.542969 16.566406 L 13.996094 16.566406 "/>
<path style=" stroke:none;fill-rule:nonzero;fill:rgb(13.729858%,12.159729%,12.548828%);fill-opacity:1;" d="M 18.289063 20.226563 L 18.746094 20.226563 L 18.746094 16.566406 L 18.289063 16.566406 Z M 18.289063 20.226563 "/>
<path style=" stroke:none;fill-rule:nonzero;fill:rgb(13.729858%,12.159729%,12.548828%);fill-opacity:1;" d="M 21.4375 19.808594 L 22.550781 19.808594 L 22.550781 20.226563 L 20.984375 20.226563 L 20.984375 16.566406 L 21.4375 16.566406 Z M 21.4375 19.808594 "/>
<path style=" stroke:none;fill-rule:nonzero;fill:rgb(13.729858%,12.159729%,12.548828%);fill-opacity:1;" d="M 24.820313 19.808594 L 24.980469 19.808594 C 25.910156 19.808594 26.71875 19.457031 26.71875 18.394531 C 26.71875 17.328125 25.910156 16.984375 24.980469 16.984375 L 24.820313 16.984375 Z M 24.363281 16.566406 L 25.121094 16.566406 C 26.242188 16.566406 27.171875 17.160156 27.171875 18.375 C 27.171875 19.625 26.261719 20.226563 25.105469 20.226563 L 24.363281 20.226563 L 24.363281 16.566406 "/>
<path style=" stroke:none;fill-rule:nonzero;fill:rgb(13.729858%,12.159729%,12.548828%);fill-opacity:1;" d="M 29.164063 20.226563 L 29.621094 20.226563 L 29.621094 16.566406 L 29.164063 16.566406 Z M 29.164063 20.226563 "/>
<path style=" stroke:none;fill-rule:nonzero;fill:rgb(13.729858%,12.159729%,12.548828%);fill-opacity:1;" d="M 32.105469 16.390625 L 34.851563 19.269531 L 34.851563 16.566406 L 35.304688 16.566406 L 35.304688 20.375 L 32.5625 17.5 L 32.5625 20.226563 L 32.105469 20.226563 Z M 32.105469 16.390625 "/>
<path style=" stroke:none;fill-rule:nonzero;fill:rgb(13.729858%,12.159729%,12.548828%);fill-opacity:1;" d="M 40.839844 18.382813 L 40.839844 18.527344 C 40.839844 19.53125 40.132813 20.304688 39.109375 20.304688 C 38.085938 20.304688 37.261719 19.421875 37.261719 18.40625 C 37.261719 17.351563 38.105469 16.488281 39.15625 16.488281 C 39.726563 16.488281 40.289063 16.746094 40.648438 17.199219 L 40.328125 17.503906 C 40.066406 17.144531 39.625 16.90625 39.175781 16.90625 C 38.359375 16.90625 37.714844 17.570313 37.714844 18.390625 C 37.714844 19.15625 38.347656 19.886719 39.136719 19.886719 C 39.707031 19.886719 40.316406 19.394531 40.335938 18.800781 L 39.390625 18.800781 L 39.390625 18.382813 L 40.839844 18.382813 "/>
<path style=" stroke:none;fill-rule:nonzero;fill:rgb(13.729858%,12.159729%,12.548828%);fill-opacity:1;" d="M 46.683594 20.226563 L 46.230469 20.226563 L 46.230469 16.984375 L 45.359375 16.984375 L 45.359375 16.566406 L 47.554688 16.566406 L 47.554688 16.984375 L 46.683594 16.984375 Z M 46.683594 20.226563 "/>
<path style=" stroke:none;fill-rule:nonzero;fill:rgb(13.729858%,12.159729%,12.548828%);fill-opacity:1;" d="M 51.816406 18.042969 L 51.816406 16.566406 L 52.273438 16.566406 L 52.273438 20.226563 L 51.816406 20.226563 L 51.816406 18.46875 L 50.074219 18.46875 L 50.074219 20.226563 L 49.621094 20.226563 L 49.621094 16.566406 L 50.074219 16.566406 L 50.074219 18.042969 Z M 51.816406 18.042969 "/>
<path style=" stroke:none;fill-rule:nonzero;fill:rgb(13.729858%,12.159729%,12.548828%);fill-opacity:1;" d="M 57.605469 18.394531 C 57.605469 17.589844 57.003906 16.914063 56.144531 16.914063 C 55.285156 16.914063 54.683594 17.589844 54.683594 18.394531 C 54.683594 19.230469 55.351563 19.875 56.144531 19.875 C 56.933594 19.875 57.605469 19.230469 57.605469 18.394531 M 58.058594 18.394531 C 58.058594 19.484375 57.203125 20.304688 56.144531 20.304688 C 55.085938 20.304688 54.226563 19.484375 54.226563 18.394531 C 54.226563 17.347656 55.09375 16.488281 56.144531 16.488281 C 57.191406 16.488281 58.058594 17.347656 58.058594 18.394531 "/>
<path style=" stroke:none;fill-rule:nonzero;fill:rgb(13.729858%,12.159729%,12.548828%);fill-opacity:1;" d="M 60.25 16.566406 L 60.25 18.726563 C 60.25 19.324219 60.429688 19.875 61.132813 19.875 C 61.835938 19.875 62.019531 19.324219 62.019531 18.726563 L 62.019531 16.566406 L 62.472656 16.566406 L 62.472656 18.882813 C 62.472656 19.6875 61.972656 20.304688 61.132813 20.304688 C 60.292969 20.304688 59.792969 19.6875 59.792969 18.882813 L 59.792969 16.566406 L 60.25 16.566406 "/>
<path style=" stroke:none;fill-rule:nonzero;fill:rgb(13.729858%,12.159729%,12.548828%);fill-opacity:1;" d="M 67.699219 18.382813 L 67.699219 18.527344 C 67.699219 19.53125 66.988281 20.304688 65.964844 20.304688 C 64.941406 20.304688 64.117188 19.421875 64.117188 18.40625 C 64.117188 17.351563 64.960938 16.488281 66.015625 16.488281 C 66.582031 16.488281 67.144531 16.746094 67.503906 17.199219 L 67.183594 17.503906 C 66.921875 17.144531 66.480469 16.90625 66.035156 16.90625 C 65.214844 16.90625 64.574219 17.570313 64.574219 18.390625 C 64.574219 19.15625 65.203125 19.886719 65.996094 19.886719 C 66.5625 19.886719 67.171875 19.394531 67.191406 18.800781 L 66.246094 18.800781 L 66.246094 18.382813 L 67.699219 18.382813 "/>
<path style=" stroke:none;fill-rule:nonzero;fill:rgb(13.729858%,12.159729%,12.548828%);fill-opacity:1;" d="M 71.519531 18.042969 L 71.519531 16.566406 L 71.976563 16.566406 L 71.976563 20.226563 L 71.519531 20.226563 L 71.519531 18.46875 L 69.777344 18.46875 L 69.777344 20.226563 L 69.320313 20.226563 L 69.320313 16.566406 L 69.777344 16.566406 L 69.777344 18.042969 Z M 71.519531 18.042969 "/>
<path style=" stroke:none;fill-rule:nonzero;fill:rgb(13.729858%,12.159729%,12.548828%);fill-opacity:1;" d="M 75.292969 20.226563 L 74.835938 20.226563 L 74.835938 16.984375 L 73.96875 16.984375 L 73.96875 16.566406 L 76.160156 16.566406 L 76.160156 16.984375 L 75.292969 16.984375 Z M 75.292969 20.226563 "/>
<path style=" stroke:none;fill-rule:nonzero;fill:rgb(13.729858%,12.159729%,12.548828%);fill-opacity:1;" d="M 78.523438 16.984375 L 78.523438 18.011719 L 79.792969 18.011719 L 79.792969 18.429688 L 78.523438 18.429688 L 78.523438 20.226563 L 78.066406 20.226563 L 78.066406 16.566406 L 79.835938 16.566406 L 79.835938 16.984375 Z M 78.523438 16.984375 "/>
<path style=" stroke:none;fill-rule:nonzero;fill:rgb(13.729858%,12.159729%,12.548828%);fill-opacity:1;" d="M 82.265625 16.566406 L 82.265625 18.726563 C 82.265625 19.324219 82.445313 19.875 83.152344 19.875 C 83.855469 19.875 84.035156 19.324219 84.035156 18.726563 L 84.035156 16.566406 L 84.488281 16.566406 L 84.488281 18.882813 C 84.488281 19.6875 83.988281 20.304688 83.152344 20.304688 C 82.3125 20.304688 81.8125 19.6875 81.8125 18.882813 L 81.8125 16.566406 L 82.265625 16.566406 "/>
<path style=" stroke:none;fill-rule:nonzero;fill:rgb(13.729858%,12.159729%,12.548828%);fill-opacity:1;" d="M 86.835938 19.808594 L 87.949219 19.808594 L 87.949219 20.226563 L 86.378906 20.226563 L 86.378906 16.566406 L 86.835938 16.566406 Z M 86.835938 19.808594 "/>
<path style=" stroke:none;fill-rule:nonzero;fill:rgb(13.729858%,12.159729%,12.548828%);fill-opacity:1;" d="M 90.253906 19.808594 L 91.367188 19.808594 L 91.367188 20.226563 L 89.800781 20.226563 L 89.800781 16.566406 L 90.253906 16.566406 Z M 90.253906 19.808594 "/>
<path style=" stroke:none;fill-rule:nonzero;fill:rgb(13.729858%,12.159729%,12.548828%);fill-opacity:1;" d="M 92.378906 16.566406 L 92.902344 16.566406 L 93.800781 18.128906 L 94.699219 16.566406 L 95.222656 16.566406 L 94.03125 18.632813 L 94.03125 20.226563 L 93.574219 20.226563 L 93.574219 18.632813 Z M 92.378906 16.566406 "/>
</g>
</svg>
