<svg version="1.2" xmlns="http://www.w3.org/2000/svg" viewBox="0 0 105 24" width="105" height="24">
	<title>A-Shridhar logo-svg</title>
	<style>
		.s0 { fill: #ffffff } 
	</style>
	<g id="surface1">
		<path id="Layer" class="s0" d="m16.8 12.7q-0.3 0-0.5-0.2-0.2-0.3-0.2-0.5 0-0.3 0.2-0.5 0.2-0.2 0.5-0.2 0.3 0 0.5 0.2 0.2 0.2 0.2 0.5 0 0.2-0.2 0.5-0.2 0.2-0.5 0.2z"/>
		<path id="Layer" class="s0" d="m80.6 12.4c2.3-3.4 3.7-1 6.7-1.3l-3.4-5.8-4.2 7.1h-1.8l5.3-8.8q0.1-0.3 0.3-0.4 0.2-0.2 0.5-0.2 0.2 0 0.4 0.2 0.2 0.1 0.3 0.4l5.4 8.8c-3.5 0.9-7.1-1.6-9.5 0z"/>
		<path id="Layer" class="s0" d="m5.8 12.4c2.2-3.4 3.7-1 6.7-1.3l-3.4-5.8-4.2 7.1h-1.9l5.3-8.8q0.2-0.3 0.4-0.4 0.2-0.2 0.4-0.2 0.3 0 0.5 0.2 0.2 0.1 0.3 0.4l5.3 8.8c-3.4 0.9-7-1.6-9.4 0z"/>
		<path id="Layer" class="s0" d="m19.6 12.6v-1.6h7q0.6 0 1-0.3 0.3-0.4 0.3-0.9 0-0.6-0.3-0.9-0.4-0.3-1-0.3h-4.3q-0.6 0-1.1-0.2-0.6-0.2-0.9-0.5-0.4-0.4-0.6-0.9-0.2-0.5-0.2-1 0-0.6 0.2-1.1 0.2-0.4 0.5-0.8 0.4-0.3 0.9-0.5 0.6-0.2 1.3-0.2h6.6v1.6h-6.6q-0.6 0-0.9 0.3-0.3 0.3-0.3 0.8 0 0.6 0.3 0.8 0.3 0.3 0.8 0.3h4.3q1.4 0 2.1 0.7 0.8 0.7 0.8 2 0 0.6-0.2 1.1-0.2 0.5-0.6 0.9-0.3 0.3-0.9 0.5-0.5 0.2-1.2 0.2z"/>
		<path id="Layer" class="s0" d="m50.1 12.6c-1.1-1.2-3.6-4.2-5.8-2.5 0.9-1.9 1.3-1.5 3.9-1.5q0.8 0 1.3-0.5 0.4-0.4 0.4-1.3 0-0.9-0.4-1.4-0.5-0.4-1.3-0.4h-5.1v7.6h-1.6v-9.2h6.7q0.7 0 1.4 0.2 0.6 0.2 1 0.7 0.5 0.4 0.7 1 0.2 0.7 0.2 1.4 0 1.2-0.5 2-0.5 0.8-1.4 1.1l2.8 2.8z"/>
		<path id="Layer" class="s0" d="m53.3 3.4h1.6v9.2h-1.6z"/>
		<path id="Layer" fill-rule="evenodd" class="s0" d="m56.6 12.6v-9.2h5.4q1 0 1.8 0.3 0.8 0.3 1.4 0.9 0.6 0.6 1 1.5 0.3 0.8 0.3 1.8 0 1-0.3 1.9-0.4 0.8-1 1.5-0.6 0.6-1.4 1-0.8 0.3-1.8 0.3zm5.3-1.6q0.7 0 1.2-0.2 0.5-0.3 0.9-0.7 0.4-0.3 0.6-0.9 0.2-0.6 0.2-1.2 0-0.7-0.2-1.2-0.2-0.6-0.6-1-0.4-0.4-0.9-0.6-0.5-0.2-1.2-0.2h-3.7v6z"/>
		<path id="Layer" class="s0" d="m38.3 12.6v-4h-4.7v-1.4h4.7v-3.9h1.6v9.3zm-5.8 0h-1.6v-9.3h1.6z"/>
		<path id="Layer" class="s0" d="m75.3 12.6v-4h-4.7v-1.4h4.7v-3.9h1.6v9.3zm-5.9 0h-1.6v-9.3h1.6z"/>
		<path id="Layer" class="s0" d="m99.7 12.6c-1.1-1.2-3.6-4.2-5.8-2.5 0.9-1.9 1.3-1.5 3.8-1.5q0.9 0 1.4-0.5 0.4-0.4 0.4-1.3 0-0.9-0.5-1.4-0.4-0.4-1.3-0.4h-5v7.6h-1.6v-9.2h6.6q0.8 0 1.4 0.2 0.7 0.2 1.1 0.7 0.4 0.4 0.7 1 0.2 0.7 0.2 1.4 0 1.2-0.5 2-0.5 0.8-1.4 1.1l2.8 2.8z"/>
		<path id="Layer" fill-rule="evenodd" class="s0" d="m9.4 16.6h0.5c0.7 0 1.3 0.1 1.3 1 0 0.2-0.1 0.5-0.4 0.7 0.4 0.1 0.7 0.5 0.7 0.9 0 0.7-0.6 1-1.2 1h-0.9zm0.5 1.6h0.1c0.4 0 0.8 0 0.8-0.6 0-0.5-0.4-0.6-0.8-0.6h-0.1zm0 1.7h0.3c0.4 0 0.9-0.2 0.9-0.7 0-0.5-0.5-0.6-0.9-0.6h-0.3z"/>
		<path id="Layer" class="s0" d="m14 16.6v2.1c0 0.6 0.2 1.2 0.9 1.2 0.7 0 0.9-0.6 0.9-1.2v-2.1h0.4v2.3c0 0.8-0.5 1.4-1.3 1.4-0.9 0-1.4-0.6-1.4-1.4v-2.3z"/>
		<path id="Layer" class="s0" d="m18.3 16.6h0.4v3.6h-0.4z"/>
		<path id="Layer" class="s0" d="m21.4 19.8h1.2v0.4h-1.6v-3.6h0.4z"/>
		<path id="Layer" fill-rule="evenodd" class="s0" d="m24.4 16.6h0.7c1.1 0 2.1 0.6 2.1 1.8 0 1.2-0.9 1.8-2.1 1.8h-0.7zm0.4 3.3h0.2c0.9 0 1.7-0.4 1.7-1.4 0-1.1-0.8-1.5-1.7-1.5h-0.2z"/>
		<path id="Layer" class="s0" d="m29.2 16.6h0.4v3.6h-0.4z"/>
		<path id="Layer" class="s0" d="m32.1 16.4l2.8 2.9v-2.7h0.4v3.8l-2.7-2.9v2.7h-0.5z"/>
		<path id="Layer" class="s0" d="m40.8 18.4v0.1c0 1-0.7 1.8-1.7 1.8-1 0-1.8-0.9-1.8-1.9 0-1 0.8-1.9 1.9-1.9 0.5 0 1.1 0.2 1.4 0.7l-0.3 0.3c-0.2-0.4-0.7-0.6-1.1-0.6-0.8 0-1.5 0.7-1.5 1.5 0 0.8 0.6 1.5 1.4 1.5 0.6 0 1.2-0.5 1.2-1.1h-0.9v-0.4z"/>
		<path id="Layer" class="s0" d="m46.7 20.2h-0.5v-3.2h-0.8v-0.4h2.2v0.4h-0.9z"/>
		<path id="Layer" class="s0" d="m51.8 18v-1.4h0.5v3.6h-0.5v-1.7h-1.7v1.7h-0.5v-3.6h0.5v1.4z"/>
		<path id="Layer" fill-rule="evenodd" class="s0" d="m58.1 18.4c0 1.1-0.9 1.9-2 1.9-1 0-1.9-0.8-1.9-1.9 0-1.1 0.9-1.9 1.9-1.9 1.1 0 2 0.8 2 1.9zm-0.5 0c0-0.8-0.6-1.5-1.5-1.5-0.8 0-1.4 0.7-1.4 1.5 0 0.8 0.7 1.5 1.4 1.5 0.8 0 1.5-0.7 1.5-1.5z"/>
		<path id="Layer" class="s0" d="m60.3 16.6v2.1c0 0.6 0.1 1.2 0.8 1.2 0.7 0 0.9-0.6 0.9-1.2v-2.1h0.5v2.3c0 0.8-0.5 1.4-1.4 1.4-0.8 0-1.3-0.6-1.3-1.4v-2.3z"/>
		<path id="Layer" class="s0" d="m67.7 18.4v0.1c0 1-0.7 1.8-1.7 1.8-1.1 0-1.9-0.9-1.9-1.9 0-1 0.9-1.9 1.9-1.9 0.6 0 1.1 0.2 1.5 0.7l-0.3 0.3c-0.3-0.4-0.7-0.6-1.2-0.6-0.8 0-1.4 0.7-1.4 1.5 0 0.8 0.6 1.5 1.4 1.5 0.6 0 1.2-0.5 1.2-1.1h-1v-0.4z"/>
		<path id="Layer" class="s0" d="m71.5 18v-1.4h0.5v3.6h-0.5v-1.7h-1.7v1.7h-0.5v-3.6h0.5v1.4z"/>
		<path id="Layer" class="s0" d="m75.3 20.2h-0.5v-3.2h-0.8v-0.4h2.2v0.4h-0.9z"/>
		<path id="Layer" class="s0" d="m78.5 17v1h1.3v0.4h-1.3v1.8h-0.4v-3.6h1.7v0.4z"/>
		<path id="Layer" class="s0" d="m82.3 16.6v2.1c0 0.6 0.1 1.2 0.9 1.2 0.7 0 0.8-0.6 0.8-1.2v-2.1h0.5v2.3c0 0.8-0.5 1.4-1.3 1.4-0.9 0-1.4-0.6-1.4-1.4v-2.3z"/>
		<path id="Layer" class="s0" d="m86.8 19.8h1.1v0.4h-1.5v-3.6h0.4z"/>
		<path id="Layer" class="s0" d="m90.3 19.8h1.1v0.4h-1.6v-3.6h0.5z"/>
		<path id="Layer" class="s0" d="m92.4 16.6h0.5l0.9 1.5 0.9-1.5h0.5l-1.2 2v1.6h-0.4v-1.6z"/>
	</g>
</svg>